<mxfile host="65bd71144e">
    <diagram id="Qz1UC58JT_ZQaD0i4uoz" name="Page-1">
        <mxGraphModel dx="787" dy="520" grid="1" gridSize="10" guides="1" tooltips="1" connect="1" arrows="1" fold="1" page="1" pageScale="1" pageWidth="827" pageHeight="1169" math="0" shadow="0">
            <root>
                <mxCell id="0"/>
                <mxCell id="1" parent="0"/>
                <mxCell id="15" style="edgeStyle=none;html=1;entryX=0.5;entryY=0;entryDx=0;entryDy=0;" edge="1" parent="1" source="5">
                    <mxGeometry relative="1" as="geometry">
                        <mxPoint x="220" y="180" as="targetPoint"/>
                    </mxGeometry>
                </mxCell>
                <mxCell id="5" value="начало" style="rounded=1;whiteSpace=wrap;html=1;" vertex="1" parent="1">
                    <mxGeometry x="160" y="90" width="120" height="40" as="geometry"/>
                </mxCell>
                <mxCell id="18" style="edgeStyle=none;html=1;" edge="1" parent="1" source="17">
                    <mxGeometry relative="1" as="geometry">
                        <mxPoint x="220" y="270" as="targetPoint"/>
                    </mxGeometry>
                </mxCell>
                <mxCell id="17" value="Создать первоначальный массив А&lt;br&gt;" style="rounded=0;whiteSpace=wrap;html=1;" vertex="1" parent="1">
                    <mxGeometry x="160" y="180" width="120" height="60" as="geometry"/>
                </mxCell>
                <mxCell id="45" style="edgeStyle=none;html=1;entryX=0.5;entryY=0;entryDx=0;entryDy=0;" edge="1" parent="1" source="20" target="36">
                    <mxGeometry relative="1" as="geometry"/>
                </mxCell>
                <mxCell id="20" value="Объявить пустой массив В длиннной 0&lt;br&gt;&lt;br&gt;Oбъявить счетчик i=0;&lt;br&gt;Объявить счетчик j=-1;" style="shape=parallelogram;perimeter=parallelogramPerimeter;whiteSpace=wrap;html=1;fixedSize=1;" vertex="1" parent="1">
                    <mxGeometry x="130" y="260" width="180" height="90" as="geometry"/>
                </mxCell>
                <mxCell id="26" value="да" style="edgeStyle=none;html=1;entryX=0;entryY=0.5;entryDx=0;entryDy=0;" edge="1" parent="1" source="24" target="31">
                    <mxGeometry x="0.5238" relative="1" as="geometry">
                        <mxPoint x="580" y="420" as="targetPoint"/>
                        <Array as="points">
                            <mxPoint x="542.5" y="420"/>
                        </Array>
                        <mxPoint as="offset"/>
                    </mxGeometry>
                </mxCell>
                <mxCell id="34" value="нет" style="edgeStyle=none;html=1;entryX=0.375;entryY=0.167;entryDx=0;entryDy=0;entryPerimeter=0;" edge="1" parent="1" source="24" target="30">
                    <mxGeometry relative="1" as="geometry"/>
                </mxCell>
                <mxCell id="24" value="число&amp;nbsp; из массива А &amp;gt;8" style="rhombus;whiteSpace=wrap;html=1;" vertex="1" parent="1">
                    <mxGeometry x="360" y="380" width="185" height="80" as="geometry"/>
                </mxCell>
                <mxCell id="46" style="edgeStyle=none;html=1;entryX=0.5;entryY=1;entryDx=0;entryDy=0;exitX=0;exitY=0.5;exitDx=0;exitDy=0;" edge="1" parent="1" source="30" target="36">
                    <mxGeometry relative="1" as="geometry">
                        <mxPoint x="360" y="530" as="sourcePoint"/>
                        <Array as="points">
                            <mxPoint x="220" y="530"/>
                        </Array>
                    </mxGeometry>
                </mxCell>
                <mxCell id="30" value="Увеличить счетчик i один" style="whiteSpace=wrap;html=1;" vertex="1" parent="1">
                    <mxGeometry x="422.5" y="500" width="80" height="60" as="geometry"/>
                </mxCell>
                <mxCell id="42" style="edgeStyle=none;html=1;entryX=1;entryY=0.5;entryDx=0;entryDy=0;" edge="1" parent="1" target="30">
                    <mxGeometry relative="1" as="geometry">
                        <mxPoint x="686.1346153846155" y="460" as="sourcePoint"/>
                        <Array as="points">
                            <mxPoint x="686" y="530"/>
                        </Array>
                    </mxGeometry>
                </mxCell>
                <mxCell id="31" value="Увеличить счетчик j на один;&lt;br&gt;&lt;br&gt;Увеличить размер массива В на один;&lt;br&gt;&lt;br&gt;Записываем число A[i] в ячейку в массив В[j]&lt;br&gt;" style="whiteSpace=wrap;html=1;" vertex="1" parent="1">
                    <mxGeometry x="610" y="360" width="152.5" height="120" as="geometry"/>
                </mxCell>
                <mxCell id="37" value="да" style="edgeStyle=none;html=1;exitX=1;exitY=0.5;exitDx=0;exitDy=0;entryX=0;entryY=0.5;entryDx=0;entryDy=0;" edge="1" parent="1" source="36" target="24">
                    <mxGeometry relative="1" as="geometry">
                        <Array as="points"/>
                    </mxGeometry>
                </mxCell>
                <mxCell id="48" style="edgeStyle=none;html=1;exitX=0;exitY=0.5;exitDx=0;exitDy=0;entryX=0;entryY=0.5;entryDx=0;entryDy=0;" edge="1" parent="1" source="36" target="53">
                    <mxGeometry relative="1" as="geometry">
                        <mxPoint x="160" y="620" as="targetPoint"/>
                        <mxPoint x="140" y="430" as="sourcePoint"/>
                        <Array as="points">
                            <mxPoint x="110" y="420"/>
                            <mxPoint x="110" y="560"/>
                            <mxPoint x="110" y="615"/>
                        </Array>
                    </mxGeometry>
                </mxCell>
                <mxCell id="55" value="нет" style="edgeLabel;html=1;align=center;verticalAlign=middle;resizable=0;points=[];" vertex="1" connectable="0" parent="48">
                    <mxGeometry x="-0.6791" y="2" relative="1" as="geometry">
                        <mxPoint as="offset"/>
                    </mxGeometry>
                </mxCell>
                <mxCell id="36" value="счетчик i &amp;lt; размер массива А" style="rhombus;whiteSpace=wrap;html=1;" vertex="1" parent="1">
                    <mxGeometry x="145" y="380" width="150" height="80" as="geometry"/>
                </mxCell>
                <mxCell id="53" value="Выводим массив В на экран" style="shape=parallelogram;perimeter=parallelogramPerimeter;whiteSpace=wrap;html=1;fixedSize=1;" vertex="1" parent="1">
                    <mxGeometry x="140" y="585" width="210" height="60" as="geometry"/>
                </mxCell>
            </root>
        </mxGraphModel>
    </diagram>
</mxfile>